/* XPM */
static char * ball_xpm[] = {
"50 50 2 1",
" 	c #FFFFFE",
".	c #00FF00",
"                     ........                     ",
"                 ................                 ",
"              .....................               ",
"            .........................             ",
"           ............................           ",
"         ...............................          ",
"        .................................         ",
"       ....................................       ",
"      .....................................       ",
"     .......................................      ",
"     ........................................     ",
"    ..........................................    ",
"   ...........................................    ",
"   ............................................   ",
"  .............................................   ",
"  ..............................................  ",
"  ..............................................  ",
" ................................................ ",
" ................................................ ",
" ................................................ ",
" ................................................ ",
"................................................. ",
"................................................. ",
"..................................................",
"..................................................",
"..................................................",
"..................................................",
"................................................. ",
"................................................. ",
" ................................................ ",
" ................................................ ",
" ................................................ ",
" ...............................................  ",
"  ..............................................  ",
"  ..............................................  ",
"   ............................................   ",
"   ............................................   ",
"    ..........................................    ",
"    ..........................................    ",
"     ........................................     ",
"      ......................................      ",
"       ....................................       ",
"       ...................................        ",
"         ................................         ",
"          ..............................          ",
"           ............................           ",
"             ........................             ",
"               ....................               ",
"                 ...............                  ",
"                       ....                       "};
