/* XPM */
static char * cinco_xpm[] = {
"15 20 2 1",
" 	c #FFFFFE",
".	c #ffffff",
" ............. ",
" ............. ",
" .             ",
" .             ",
" .             ",
" .             ",
" ..            ",
"   ...         ",
"      ..       ",
"        ...    ",
"           .   ",
"            .  ",
"             . ",
"             . ",
"              .",
"             . ",
"             . ",
"            .  ",
"............   ",
"..........     "};
