/* XPM */
static char * dois_xpm[] = {
"15 20 2 1",
" 	c #FFFFFE",
".	c #ffffff",
".........      ",
"............   ",
"..          .  ",
"..           . ",
"..           . ",
"..           . ",
"            .  ",
"            .  ",
"           .   ",
"          .    ",
"         .     ",
"        .      ",
"       .       ",
"      .        ",
"     .         ",
"    .          ",
"   .           ",
"  ..           ",
" ..............",
" .............."};
