/* XPM */
static char * exit_xpm[] = {
"74 29 2 1",
" 	c #FFFFFE",
".	c #ffffff",
"       ..............  ..                ..  .............................",
"   ..................  ..                ..  .............................",
"  ...................   ..              ..   .............................",
" ...                    ..              ..   ..             ..            ",
" ..                     ...            ..    ..             ..            ",
" ..                      ..            ..    ..             ..            ",
" ..                      ...          ...    ..             ..            ",
"...                       ..          ..     ..             ..            ",
"...                        ..        ..      ..             ..            ",
"...                        ..        ..      ..             ..            ",
"...                        ...      ..       ..             ..            ",
"...                         ..      ..       ..             ..            ",
".....................       ...    ...       ..             ..            ",
".....................        .......         ..             ..            ",
"...                           ......         ..             ..            ",
"...                          ..    ..        ..             ..            ",
"...                         ..      ..       ..             ..            ",
"...                        ...      ..       ..             ..            ",
"...                        ..       ...      ..             ..            ",
"...                        ..        ..      ..             ..            ",
"...                       ..          ..     ..             ..            ",
"...                       ..          ..     ..             ..            ",
" ..                      ..           ...    ..             ..            ",
" ..                     ...            ..    ..             ..            ",
" ..                     ..              ..   ..             ..            ",
" ...                    ..              ..   ..             ..            ",
"  ...................  ...               ..  ..             ..            ",
"   ..................  ..                ..  ..             ..            ",
"       .............. ...                ... ..             ..            "};
