/* XPM */
static char * instructions_title_xpm[] = {
"400 45 2 1",
" 	c #FFFFFE",
".	c #ffffff",
".......                                      ......                ....................  ................................................................             .......                     ......                  ..............................................................                  ..........                                                ......                ...................   ",
".......           ......                     ......            ........................  ...................................................................          .......                     ......              ..................................................................              ..................                .......                     ......            .......................   ",
".......         ..........                   ......           .........................  ....................................................................         .......                     ......             ...................................................................            .....................              ..........                   ......          .........................   ",
".......       ..............                 ......         ...........................  ......................................................................       .......                     ......           .....................................................................          .........................          .............                  ......         ..........................   ",
".......       ..............                 ......        ............................  ......................................................................       .......                     ......          ......................................................................          ..........................        ...............                 ......        ...........................   ",
".......      ................                ......       .............................  .......................................................................      .......                     ......         .......................................................................        ............................        ................                ......       ............................   ",
".......     ..................               ......      ..............................  ........................................................................     .......                     ......        ........................................................................        .............................      ..................               ......       ............................   ",
".......     ........  ........               ......      ..........                                       ......                .......                  ........     .......                     ......       ...........                               .......                  ......       ...........           ........      ........ .........               ......      .........                       ",
".......     .......    ........              ......      .......                                          ......                 ......                    ......     .......                     ......       ........                                   ......                  ......      .........                .......    .......     .......               ......     ........                         ",
".......     ......      .......              ......      ......                                           ......                 ......                    ......     .......                     ......      .......                                     ......                  ......      .......                  .......    .......      ......               ......     .......                          ",
".......     ......      .......              ......      ......                                           ......                 ......                   .......     .......                     ......      .......                                     ......                  ......      ......                   .......    .......      .......              ......     ......                           ",
".......     ......       ......              ......      ......                                           ......                 ......                  ........     .......                     ......     .......                                      ......                  ......     .......                   .......    .......      .......              ......     ......                           ",
".......     ......       .......             ......      ......                                           ......                 ......                 ........      .......                     ......     .......                                      ......                  ......     .......                   .......    .......      ........             ......     .......                          ",
".......     ......       .......             ......      .......                                          ......                 ......                ........       .......                     ......     ......                                       ......                  ......     .......                   .......    .......       .......             ......     .......                          ",
".......     ......       ........            ......      ........                                         ......                 ......               .........       .......                     ......     ......                                       ......                  ......     ......                    .......    .......       .......             ......      ........                        ",
".......     ......        .......            ......       .........                                       ......                 ......              .........        .......                     ......     ......                                       ......                  ......     ......                    .......    .......        ......             ......       .........                      ",
".......     ......        .......            ......       ...........                                     ......                 ......            ..........         .......                     ......     ......                                       ......                  ......     ......                    .......    .......        .......            ......       ...........                    ",
".......     ......         ......            ......        ............                                   ......                 ......           ..........          .......                     ......     ......                                       ......                  ......     ......                    .......    .......         ......            ......       .............                  ",
".......     ......         .......           ......         .............                                 ......                 ......          ..........           .......                     ......     ......                                       ......                  ......     ......                    .......    .......         ......            ......         .............                ",
".......     ......         .......           ......          ..............                               ......                 ......         ..........            .......                     ......     ......                                       ......                  ......     ......                    .......    .......         .......           ......          ..............              ",
".......     ......          .......          ......            .............                              ......                 ......        ..........             .......                     ......     ......                                       ......                  ......     ......                    .......    .......         .......           ......            .............             ",
".......     ......          .......          ......              ..............                           ......                 ......       ...........             .......                     ......     ......                                       ......                  ......     ......                    .......    .......          .......          ......             ..............           ",
".......     ......          .......          ......                .............                          ......                 ......      ............             .......                     ......     ......                                       ......                  ......     ......                    .......    .......          .......          ......                .............         ",
".......     ......           ......          ......                 ...............                       ......                 ......    ...............            .......                     ......     ......                                       ......                  ......     ......                    .......    .......           ......          ......                 ..............       ",
".......     ......           .......         ......                    .............                      ......                 ......   .................           .......                     ......     ......                                       ......                  ......     ......                    .......    .......           ......          ......                    ............      ",
".......     ......            ......         ......                     .............                     ......                 ......  .........  .......           .......                     ......     ......                                       ......                  ......     ......                    .......    .......           .......         ......                     .............    ",
".......     ......            ......         ......                       ............                    ......                 ................    ......           .......                     ......     ......                                       ......                  ......     ......                    .......    .......           .......         ......                       ............   ",
".......     ......            .......        ......                         ...........                   ......                 ...............     .......          .......                     ......     ......                                       ......                  ......     ......                    .......    .......           ........        ......                         ..........   ",
".......     ......            .......        ......                           .........                   ......                 ..............      ........         .......                     ......     ......                                       ......                  ......     ......                    .......    .......            .......        ......                           .........  ",
".......     ......            ........       ......                             ........                  ......                 .............        .......         .......                     ......     ......                                       ......                  ......     ......                    .......    .......             ......        ......                             ........ ",
".......     ......             .......       ......                              .......                  ......                 ............          .......         ......                     ......     ......                                       ......                  ......     ......                    .......    .......             ......        ......                              ....... ",
".......     ......             .......       ......                               .......                 ......                 ..........            .......         ......                     ......     ......                                       ......                  ......     ......                    .......    .......             .......       ......                              ........",
".......     ......              ......       ......                               .......                 ......                 ..........            ........        ......                     ......     ......                                       ......                  ......     ......                    .......    .......             .......       ......                               .......",
".......     ......              .......      ......                               .......                 ......                 ........               .......        .......                    ......     ......                                       ......                  ......     ......                    ......     .......             ........      ......                               .......",
".......     ......              .......      ......                               .......                 ......                 .......                 .......       ........                   ......     ......                                       ......                  ......     .......                  .......     .......              .......      ......                               .......",
".......     ......              .......      ......                              ........                 ......                 ......                  .......        .......                  .......     ......                                       ......                  ......     .......                 ........     .......              .......      ......                              ....... ",
".......     ......               .......    .......                             ........                  ......                 ......                   .......        ........               ........     ........                                     ......                  ......     .......                ........      .......               ......     .......                             ........ ",
".......     ......               ........   .......     ...............................                   ......                 ......                   .......        ..............................      ..............................               ......                  ......      ..............................      .......               ........  .......      ...............................  ",
".......     ......                .................      ..............................                   ......                 ......                    .......        .............................       .............................               ......                  ......      .............................       .......               .................      ...............................  ",
".......     ......                ................       ..............................                   ......                 ......                    ........        ...........................         ............................               ......                  ......      ............................        .......                ................      ..............................   ",
".......     ......                 ..............        ............................                     ......                 ......                     .......         .........................           ...........................               ......                  ......        ........................          .......                 ..............       .............................    ",
".......     ......                  ............         ............................                     ......                 ......                     ........         .......................             ..........................               ......                  ......        ........................          .......                 .............        ............................     ",
".......     ......                    .........          .........................                        ......                 ......                      .......           ...................                .........................               ......                  ......          ...................             .......                   .........          ..........................       ",
".......     ......                     ......           ........................                          ......                .......                      ........             ..............                    .......................               ......                  ......            ...............               .......                     ......           ........................         ",
"                                                                                                                                                                                                                                                                                                                                                                                                                "};
