/* XPM */
static char * instructions_xpm[] = {
"253 29 2 1",
" 	c #FFFFFE",
".	c #ffffff",
"...                           ..          ............  ........................................         ..                  .            ................................... ..            .......                                ..          ............  ",
"...      .....                ..       ...............  ...........................................      ..                  .         ...................................... ..         .............        .....                ..       ...............  ",
"...     ........              ..     .................  .............................................    ..                  .        ....................................... ..       ................      ........              ..      ................  ",
"...    ..     ..              ..    ...                             .            ..                 .    ..                  .       ..                        ..             ..      ..             ..     ..      ..             ..     ..                 ",
"...    .       ..             ..    .                               .            ..                 ..   ..                  .      .                          ..             ..     ..               ..    ..      ..             ..    ..                  ",
"...    .       ..             ..   ..                               .            ..                 ..   ..                  .     ..                          ..             ..     .                 .    ..       .             ..    .                   ",
"...   ..        .             ..   ..                               .            ..                 .    ..                  .     .                           ..             ..    ..                 .    ..       ..            ..    .                   ",
"...   ..        ..            ..    .                               .            ..                ..    ..                  .    ..                           ..             ..    ..                 .    ..       ..            ..    ..                  ",
"...   ..        ..            ..    ..                              .            ..               ..     ..                  .    ..                           ..             ..    .                  .    ..       ..            ..    ..                  ",
"...   ..         .            ..     .                              .            ..             ...      ..                  .    ..                           ..             ..    .                  .    ..        .            ..     ..                 ",
"...   ..         ..           ..     ...                            .            ..            ...       ..                  .    ..                           ..             ..    .                  .    ..        ..           ..      ..                ",
"...   ..         ..           ..       ...                          .            ..           ..         ..                  .    ..                           ..             ..    .                  .    ..         .           ..       ...              ",
"...   ..          .           ..         ...                        .            ..          ..          ..                  .    ..                           ..             ..    .                  .    ..         ..          ..         ...            ",
"...   ..          ..          ..          ....                      .            ..         ...          ..                  .    ..                           ..             ..    .                  .    ..         ..          ..           ...          ",
"...   ..          ..          ..            ....                    .            ..       ... ..         ..                  .    ..                           ..             ..    .                  .    ..          .          ..            ....        ",
"...   ..           .          ..              ....                  .            ..      ...   .         ..                  .    ..                           ..             ..    .                  .    ..          ..         ..              ....      ",
"...   ..           ..         ..                 ..                 .            ..     ..     ..        ..                  .    ..                           ..             ..    .                  .    ..          ..         ..                 ...    ",
"...   ..           ..         ..                  ...               .            ..    ..       .        ..                  .    ..                           ..             ..    .                  .    ..           .         ..                  ...   ",
"...   ..            .         ..                    ..              .            ..   ..        ..       ..                  .    ..                           ..             ..    .                  .    ..           ..        ..                    ..  ",
"...   ..            ..        ..                     ..             .            ..  ..          .       ..                  .    ..                           ..             ..    .                  .    ..           ..        ..                     .. ",
"...   ..            ..        ..                     ..             .            .....           ..      ..                  .    ..                           ..             ..    .                  .    ..           ..        ..                     .. ",
"...   ..             .        ..                      .             .            ....             .       .                  .    ..                           ..             ..    .                 ..    ..            .        ..                      ..",
"...   ..             ..       ..                      .             .            ..               ..      ..                 .    ..                           ..             ..    .                 ..    ..            ..       ..                      ..",
"...   ..             ..       ..                     ..             .            ..                .       .                 .    ..                           ..             ..    .                ..     ..            ..       ..                     .. ",
"...   ..              .       .                      .              .            ..                ..      ..               ..    ..                           ..             ..    ..               ..     ..             ..      .                      .. ",
"...   ..              ..     ..                     ..              .            ..                 ..      ..             ..      ..                          ..             ..     ..            ...      ..             ..     ..                     ..  ",
"...   ..               .......     ..................               .            ..                 ..       ...............        ................           ..             ..      ...............       ..              .......      .................   ",
"...   ..                .....      ................                 .            ..                  ..        ............          ...............           ..             ..       ............         ..               .....       ................    ",
"                                                                                                                                                                                                                                                             "};
