/* XPM */
static char * oito_xpm[] = {
"15 20 2 1",
" 	c #FFFFFE",
".	c #FFFFFF",
"               ",
"    ....       ",
"    .....      ",
"   ..  ..      ",
"   .    ..     ",
"   .    ..     ",
"   .    ..     ",
"   ..  ..      ",
"   ......      ",
"  ........     ",
" ..........    ",
" .        .    ",
" .        ..   ",
" .        ..   ",
" .        .    ",
" ..      ..    ",
"  ..    ...    ",
"  ........     ",
"    .....      ",
"               "};
