/* XPM */
static char * player_cheated_xpm[] = {
"467 37 2 1",
" 	c #FFFFFE",
".	c #FFFFFF",
"....................           ...                                                        ...                     ...         ..................    ....................                            .................                                           ............  ...                      ...            ..................                                  .................................        ..................    ..............                 ...    ... ",
"........................       ...                                      .....             ...                     ...      .....................    ........................                        .....................                                   ................  ...                      ...         .....................                ......            .................................     .....................    ..................             ...    ... ",
"..........................     ...                                    .........            ...                   ...     .......................    .........................                       .......................                               ..................  ...                      ...       .......................               ........           .................................   .......................    ....................           ...    ... ",
"...                  ......    ...                                   ..... .....           ...                   ...    .....                       ...                  .....                      ...               ......                            .......               ...                      ...      .....                                 ..... ....                         ...                 .....                       ...            ......          ...    ... ",
"...                      ...   ...                                   ...     ...            ...                  ..    ....                         ...                     ...                     ...                  ....                          ....                   ...                      ...     ....                                  ...      ...                        ...                ...                          ...                ...         ...    ... ",
"...                      ...   ...                                  ...       ...           ...                 ...    ...                          ...                     ...                     ...                   ...                          ...                    ...                      ...     ...                                   ...      ...                        ...               ...                           ...                 ...        ...    ... ",
"...                       ...  ...                                  ...       ...            ..                 ...   ...                           ...                     ...                     ...                    ...                        ...                     ...                      ...    ...                                    ..        ...                       ...               ...                           ...                  ...       ...    ... ",
"...                       ...  ...                                 ...        ...            ...               ...    ...                           ...                     ...                     ...                    ...                       ...                      ...                      ...    ...                                   ...        ...                       ...               ..                            ...                   ...      ...    ... ",
"...                       ...  ...                                 ...         ..            ...               ...    ...                           ...                     ...                     ...                    ...                       ...                      ...                      ...    ...                                   ...         ..                       ...               ..                            ...                   ...      ...    ... ",
"...                       ...  ...                                 ...         ...            ...              ..     ...                           ...                    ...                      ...                    ...                      ...                       ...                      ...    ...                                   ..          ...                      ...               ..                            ...                    ..      ...    ... ",
"...                       ...  ...                                 ..          ...            ...             ...     ...                           ...                   ...                       ...                    ...                      ...                       ...                      ...    ...                                  ...          ...                      ...               ..                            ...                    ...     ...    ... ",
"...                      ...   ...                                ...           ...            ..             ...     ...                           ...                 ....                        ...                    ...                      ...                       ...                      ...    ...                                  ...           ..                      ...               ..                            ...                    ...     ...    ... ",
"...                     ...    ...                                ...           ...            ...            ..      ...                           ...                ....                                               ...                       ...                       ...                      ...    ...                                 ...            ...                     ...               ..                            ...                    ...     ...    ... ",
"...                    ....    ...                               ...             ..            ...           ...      ...                           ...               ....                                                ...                       ...                       ...                      ...    ...                                 ...            ...                     ...               ..                            ...                    ...     ...    ... ",
"...                   ....     ...                               ...             ...            ..           ..       ...                           ...              ....                                                ...                        ...                       ...                      ...    ...                                 ..              ..                     ...               ..                            ...                    ...     ...    ... ",
"...                 .....      ...                               ..              ...            ...         ...       ...                           ...             ....                                                ...                         ...                       ............................    ...                                 ..              ...                    ...               ..                            ...                    ...     ...    ... ",
"...                ....        ...                              ...               ..            ...         ...       ..........................    ...           .....                                                ...                          ...                       ............................    ..........................         ...              ...                    ...               ..........................    ...                    ...     ...    ... ",
"...              .....         ...                              ...               ...            ...       ...        ..........................    ...          ......                                               ...                           ...                       ............................    ..........................         ...               ..                    ...               ..........................    ...                    ...     ...    ... ",
"...             ....           ...                              ..                ...            ...       ...        ...                           ...         .......                                              ...                            ...                       ...                      ...    ...                               ...                ...                   ...               ..                            ...                    ...     ...    ... ",
"...           .....            ...                             ...                 ..             ...     ...         ...                           ...        ....  ...                                            ...                             ...                       ...                      ...    ...                               ...                ...                   ...               ..                            ...                    ...     ...    ... ",
"...          ....              ...                             ...                 ...             ..........         ...                           ...       ....    ...                                          ...                              ...                       ...                      ...    ...                               ...                 ...                  ...               ..                            ...                    ...     ...    ... ",
"...        ....                ...                             ...                 ...              .......           ...                           ...      ...      ...                                         ...                               ...                       ...                      ...    ...                              ...                  ...                  ...               ..                            ...                    ...     ...    ... ",
"...      .....                 ...                            ...                   ..               .....            ...                           ...     ....       ...                                       ...                                ...                       ...                      ...    ...                              ...                  ...                  ...               ..                            ...                    ...     ...    ... ",
"...     ....                   ...                            ...                   ...               ...             ...                           ...   ....         ...                                      ...                                 ...                       ...                      ...    ...                              ..                    ...                 ...               ..                            ...                    ...     ...    ... ",
"...   .....                    ...                            ..                    ...               ...             ...                           ...  ....           ...                                    ...                                  ...                       ...                      ...    ...                             ...                    ...                 ...               ..                            ...                    ...     ...    ... ",
"...  .....                     ...                           ..........................               ...             ...                           ........            ...                                   ...                                   ...                       ...                      ...    ...                             ..........................                 ...               ..                            ...                    ...     ...    ... ",
"........                       ...                           ...........................              ...             ...                           .......              ...                                 ...                                    ...                       ...                      ...    ...                             ..........................                 ...               ..                            ...                    ...                ",
"......                         ...                           ...........................              ...             ...                           ......               ...                                ...                                     ...                       ...                      ...    ...                            ............................                ...               ..                            ...                    ...                ",
".....                           ...                         ...                       ...             ...             ...                           ....                  ...                              ...                                      ...                       ...                      ...    ...                            ...                      ...                ...               ..                            ...                    ...                ",
"...                             ...                         ...                       ...             ...             ...                           ...                   ...                             ...                                       ...                       ...                      ...    ...                            ..                        ...               ...               ..                            ...                    ...                ",
"...                              ...                       ...                        ...             ...             ...                           ...                    ...                           ...                                        ...                       ...                      ...    ...                           ...                        ...               ...               ...                           ...                    ...                ",
"...                               ...                      ...                         ..             ...              ..                           ...                     ..                          ...                                          ...                      ...                      ...     ..                           ...                         ..               ...               ...                           ...                   ...                 ",
"...                               .....                    ...                         ...            ...              ...                          ...                     ...                        ....                                          ...                      ...                      ...     ...                          ..                          ...              ...                ...                          ...                  ...       ..     ... ",
"...                                 .......                ..                          ...            ...               .....                       ...                      ..                       .....                                           .....                   ...                      ...      .....                      ...                          ...              ...                 ....                        ...                .....      ....    ....",
"...                                  ........................                           ..            ...                .......................    ...                      ...                     ..........................                        .....................  ...                      ...       .......................   ...                          ...              ...                  .......................    .......................       ....    ....",
"...                                    ......................                           ...           ...                  .....................    ...                       ...                   ...........................                          ...................  ...                      ...         .....................  ...                            ..              ...                   ......................    .....................         ....    ... ",
"...                                        .................                            ...           ...                    ...................    ...                       ...                   ...........................                             ................  ...                      ...            ..................  ...                            ...             ...                      ...................    ..................                        "};
