/* XPM */
static char * press_s_xpm[] = {
"313 35 2 1",
" 	c #FFFFFE",
".	c #FFFFFF",
"                                                                                                                                                                                                                                                                                                                         ",
"                                                                                                                                      .                                                                                                                                                                      .           ",
"     ...............                 ................       ....               ...    ...               ....                        ...     .................       ..................            ................         ..............          ..............                       ..............       ...         ",
"   ...................             ..................      .......             ...    ...               ....                       .....    ...................     ...................         ..................       ................        ................                     ................      .....        ",
"   ....................           ...................     .........            ...    ...               ....                      ....      ....................    ....................       ...................      .................       .................                     ................       .....       ",
"  ....      .....  .....         .....              .    ..... .....           ...    ...               ....                     ....       ....            .....   .....           .....     .....                     ....            .      .....                                 .....                     ....      ",
"  ...        ...     ....        ...                     ...    ....           ...    ...               ....                    ....        ...               ...   ...               ...     ...                      ...                     ...                                  ...                         ....     ",
" ....        ...      ....      ...                      ...     ...           ...    ...               ....                   ....         ...                ...  ...               ...    ....                      ..                     ....                                  ...                          ....    ",
" ...         ...       ...      ...                      ...     ...           ...    ...               ....                   ...          ...                ...  ...               ...    ....                      ..                     ....                                  ...                           ....   ",
"....         ...       ....     ...                      ...     ....          ...    ...               ....                  ....          ...                ..   ...              ...     ....                      ..                     ....                                  ...                            ...   ",
"....         ...        ...     ...                      ...      ...          ...    ...               ....                  ...           ...               ...   ...            .....     ....                      ...                     ...                                  ...                            ....  ",
"....         ...        ...     ...                      ...      ...          ...    ...               ....                 ....           ...              ....   ...           .....      ....                      .....                   .....                                 ....                           ...  ",
"....         ...        ...     ...                      ...      ....         ...    ...               ....                 ...            ...             ....    ...          ....        ....                       .....                   ......                               ......                         ...  ",
"....         ...        ...     .....               .    ...       ...         ...    ...               ....                ....            ...           .....     ...         ....         .....               .       ......                   .....                                .....                        .... ",
"....         ...        ...     .....................    ...       ...         ...    ...               ....                ....            ...          .....      ...        .....         .....................         ......                   .....                               ......                      .... ",
"....         ...        ...     .....................    ...        ...        ...    ...               ....                ...             ...        ......       ...       ......         .....................           ......                  ......                               .......                   .....",
"....         ...        ...     ....                     ...        ...        ...    ...               ....                ...             ...      ......         ...     ........         ....                             ........                 .......                              .......                  ....",
"....         ...        ...     ...                      ...        ....       ...    ...               ....                ...             ...     ......          ...    .........         ....                               .......                 ........                             ........                ....",
"....         ...        ...     ...                      ...         ...       ...    ...               ....                ...             ...   ......            ...   ....    ...        ....                                 ......                  .......                              .......               ....",
"....         ...        ...     ...                      ...         ...       ...    ...               ....                ...             .... ......             .........     ...        ....                                    ....                    ....                                 .....             .....",
"....         ...        ...     ...                      ...          ...      ...    ...               ....                ....            ........                ........       ...       ....                                     ....                     ...                                  ...             .... ",
"....         ...        ...     ...                      ...          ...      ...    ...               ....                ....            .......                 .......        ....      ....                                      ...                     ...                                   ...            .... ",
"....         ...        ...     ...                      ...          ...      ...    ...               ....                 ...            ......                  ......          ...      ....                                      ...                     ....                                  ...            ...  ",
"....         ...        ...     ...                      ...           ...     ...     ...              ....                 ....           ....                    .....            ...     ....                                      ...                      ...                                  ...           ....  ",
"....         ...        ...     ...                      ...           ...     ...     ....             ...                   ...           ...                     ....             ...     ....                                      ...                     ...                                   ...           ....  ",
"....         ...        ...      ...                     ...           ...    ....      ....            ...                   ....          ...                     ...               ...     ....                                    ....                     ...                                  ....           ...   ",
"....         ...        ...      .....                   ...           ....  .....       ......       .....                    ...          ...                     ...               ....    .....                                 ......                  .....                                ......           ....   ",
"....         ...        ...       ...................    ...            .........         ................                     ....         ...                     ...               ....     ...................    ...................     ...................                   ..................           ....    ",
"....         ...        ...        ..................    ...             .......            ............                        ....        ...                     ...                ...       .................    .................       .................                     ................            ....     ",
"....         ...        ....          ...............    ...               ...                 .......                           ....       ...                     ....               ....        ...............    ..............          ..............                        ..............             ....      ",
"                                                                                                                                  .....                                                                                                                                                                      .....       ",
"                                                                                                                                   .....                                                                                                                                                                    .....        ",
"                                                                                                                                    ...                                                                                                                                                                      ...         ",
"                                                                                                                                                                                                                                                                                                             .           ",
"                                                                                                                                                                                                                                                                                                                         "};
