/* XPM */
static char * quatro_xpm[] = {
"15 20 2 1",
" 	c #FFFFFE",
".	c #FFFFFF",
"...         ...",
"...         ...",
"...         ...",
"...         ...",
"...         ...",
"...         ...",
"...         ...",
"...         ...",
" ..         ...",
" ..         ...",
" ..         ...",
"  ...       ...",
"  .............",
"    ...........",
"            ...",
"            ...",
"            ...",
"            ...",
"            ...",
"            ..."};
