/* XPM */
static char * r_xpm[] = {
"20 21 2 1",
" 	c #FFFFFE",
".	c #FFFFFF",
"............        ",
".............       ",
"...            .    ",
"...            .    ",
"...            .    ",
"...            .    ",
"...           .     ",
"...                 ",
"...                 ",
"...       ..        ",
"...       ..        ",
"...         .       ",
"...         .       ",
".....        .      ",
"....         ..     ",
"...           .     ",
"...           ..    ",
"...            .    ",
"...            ..   ",
"...             .   ",
"...             ..  "};
