/* XPM */
static char * seis_xpm[] = {
"15 19 2 1",
" 	c #FFFFFE",
".	c #FFFFFF",
"               ",
"   .....       ",
"  ..           ",
"  .            ",
" .             ",
" ........      ",
" .........     ",
"..        .    ",
"..        .    ",
"..             ",
"..         .   ",
"..         .   ",
" .             ",
" .        .    ",
" .        .    ",
"  .      .     ",
"  ..    ..     ",
"    .....      ",
"               "};
