/* XPM */
static char * sete_xpm[] = {
"15 20 2 1",
" 	c #FFFFFE",
".	c #FFFFFF",
"........       ",
"..........     ",
"...........    ",
"          .    ",
"          .    ",
"          .    ",
"         ..    ",
"         ..    ",
"         .     ",
"        ..     ",
"        ..     ",
"        .      ",
"       ..      ",
"       .       ",
"       .       ",
"      ..       ",
"      .        ",
"      .        ",
"     ..        ",
"     .         "};
