/* XPM */
static char * small_ball_xpm[] = {
"25 25 2 1",
" 	c #FFFFFE",
".	c #00FF00",
"        ........         ",
"      ............       ",
"    ................     ",
"   ..................    ",
"  ....................   ",
"  .....................  ",
" ......................  ",
" ....................... ",
"........................ ",
"........................ ",
"........................ ",
".........................",
".........................",
"........................ ",
"........................ ",
"........................ ",
" ....................... ",
" ......................  ",
"  .....................  ",
"  ....................   ",
"   ..................    ",
"    ................     ",
"     ..............      ",
"       ..........        ",
"           ..            "};
