/* XPM */
static char * start_xpm[] = {
"120 29 2 1",
" 	c #FFFFFE",
".	c #FFFFFF",
"       ............  ..........................                          ...............      ..........................",
"    ...............  ..........................         .....            ..................   ..........................",
"   ................  ..........................       ........           .................... ..........................",
"  ..                             ..                   ..    ...          ..                ..             ..            ",
" ..                              ..                  ..      ..          ..                 ..            ..            ",
" ..                              ..                  ..      ..          ..                 ..            ..            ",
" ..                              ..                  ..       ..         ..                ..             ..            ",
" ..                              ..                 ..        ..         ..               ...             ..            ",
" ..                              ..                 ..        ..         ..              ...              ..            ",
"  ..                             ..                 ..         ..        ..             ...               ..            ",
"   ...                           ..                ..          ..        ..            ...                ..            ",
"    ....                         ..                ..          ..        ..           ..                  ..            ",
"      ...                        ..                .            ..       ..          ..                   ..            ",
"       ....                      ..               ..            ..       ..        ....                   ..            ",
"         ....                    ..               ..            ..       ..       ......                  ..            ",
"           ....                  ..               .              ..      ..      ...  ..                  ..            ",
"             ....                ..              ..              ..      ..     ..     ..                 ..            ",
"               ....              ..              ..               .      ..    ..      ..                 ..            ",
"                 ...             ..              .                ..     ..   ..        ..                ..            ",
"                  ..             ..             ..                ..     .. ...         ..                ..            ",
"                   ..            ..             ....................     .....           ..               ..            ",
"                   ..            ..            ......................    ....            ..               ..            ",
"                   ..            ..            ..                  ..    ..               ..              ..            ",
"                   ..            ..            ..                   .    ..               ..              ..            ",
"                  ..             ..           ..                    ..   ..                ..             ..            ",
"                 ...             ..           ..                    ..   ..                ..             ..            ",
"...................              ..           ..                     ..  ..                 ..            ..            ",
".................                ..          ..                      ..  ..                 ...           ..            ",
"..............                   ..          ..                      ..  ..                  ..           ..            "};
