/* XPM */
static char * toggle9_xpm[] = {
"173 45 2 1",
" 	c #FFFFFF",
".	c #000000",
"                                                                                                                                                                             ",
"                                                                                                                                                                             ",
"                                                                                                                                                                             ",
"                                                                                                                                                                             ",
"                                                                                                                                                                             ",
"                                                                                                                                                                             ",
"                          ..                                                        ..                                             .................                         ",
"                          ..                                                        ..                                             .................                         ",
"                          ..                                                        ..                                             .................                         ",
"                          ..                                                        ..                                             .................                         ",
"                          ..                                                        ..                                                    ...                                ",
"                        ...........       ...           ......         ......       ..          ...                                       ...                                ",
"                        ...........    ........       .........      .........      ..       ........                                     ...                                ",
"                        ...........   ..........      ..........     ..........     ..      ..........                                    ...                                ",
"                        ...........  ............    ...........    ...........     ..      ..........                                    ...                                ",
"                        ...........  ............   ...       ...   ...      ...    ..     ...........                                    ...                                ",
"                          ..        ...        ..   ...       ...  ...        ..    ..     ..       ..                                    ...                                ",
"                          ..        ...        ..   ..        ...  ...        ..    ..    ...       ..                                    ...                                ",
"                          ..        ..         ..   ..        ...  ..         ..    ..    ...      ...                                    ...                                ",
"                          ..        ..         ..   ..        ...  ..         ..    ..    ..      ....                                    ...                                ",
"                          ..        ..         ..   ..        ...  ..         ..    ..    ..     ....                                     ...                                ",
"                          ..        ..         ..   ..        ...  ..         ..    ..    ..    ....                                      ...                                ",
"                          ..        ..         ..   ..        ...  ..         ..    ..    ..   ....             ...........               ...                                ",
"                          ..        ..         ..   ..        ...  ..         ..    ..    ..   ...              ...........               ...                                ",
"                          ..        ..         ..   ..        ...  ..         ..    ..    ..  ...               ...........               ...                                ",
"                          ..        ..         ..   ..        ...  ..         ..    ..    ......                                          ...                                ",
"                          ..        ..         ..   .............  .............    ..    ......                                          ...                                ",
"                          ..        ..         ..   .............   ............    ..    .....                                           ...                                ",
"                          ..        ..        ...    ............   ............    ..     ...                                            ...                                ",
"                          ....      ...      ...      ...........    ...........    ...    ...                                            ...                                ",
"                           ........ ............              ...            ...    .....   ...........                                   ...                                ",
"                           ........  ..........               ..             ...     ....   ...........                                   ...                                ",
"                            .......   ........                ..             ..      ....    ..........                                   ...                                ",
"                               ....    .....         ...........    ...........        ..       .......                                   ...                                ",
"                                                     ..........     ...........                                                                                              ",
"                                                     ..........     ..........                                                                                               ",
"                                                     .........      .........                                                                                                ",
"                                                                                                                                                                             ",
"                                                                                                                                                                             ",
"                                                                                                                                                                             ",
"                                                                                                                                                                             ",
"                                                                                                                                                                             ",
"                                                                                                                                                                             ",
"                                                                                                                                                                             ",
"                                                                                                                                                                             "};
