/* XPM */
static char * toggle9_xpm[] = {
"173 33 2 1",
" 	c #FFFFFF",
".	c #000000",
"                     .                                                              ..                                                           .                           ",
"                     .                                                              ..                                                           .                           ",
"                     .                                                              ..                                                         ......                        ",
"                     .                                                              ..                                                       .........                       ",
"                     .                                                              ..                                                      ...      ..                      ",
"                     .                                                              ..                                                      ..       ...                     ",
"                   ...........       .....           .......          .......       ..           .....                                     ..         ..                     ",
"                   ...........     .........        .........        .........      ..         ........                                    ..          .                     ",
"                   ...........    ...........      ...........      ...........     ..        ..........                                   ..          ..                    ",
"                   ...........   ............      .         .     ...       ..     ..       ...........                                   ..          ..                    ",
"                     .           ..         ..    .          .     .          ..    ..      ..         .                                   .           ..                    ",
"                     .          ..          ..    .          .     .          ..    ..      ..        ..                                   .           ..                    ",
"                     .          ..           .    .          .    .           ..    ..      .         ..                                   ..          ..                    ",
"                     .          .            .    .          .    .           ..    ..     ..        ..                                    ..          ..                    ",
"                     .          .            .    .          .    .           ..    ..     ..       ..                                     ..          ..                    ",
"                     .          .            .    .          .    .           ..    ..     ..      ...                                     ...         ..                    ",
"                     .          .            .    .          .    .           ..    ..     ..     ...               ...........             .............                    ",
"                     .          .            .    .          .    .           ..    ..     ..    ...                 .........               ............                    ",
"                     .          .            .    .          .    .           ..    ..     ..   ...                  .........                ...........                    ",
"                     .          .            .    .          .    .           ..    ..     .......                                                     ..                    ",
"                     .          .           ..    .          .     .          ..    ..     ......                                                      ..                    ",
"                     ..         .           ..    ............     .............    ..      ....                                                       ..                    ",
"                     ..         .           .      ...........     .............    ..      ...                                                        ..                    ",
"                     ..         ..         ..      ...........      ............    ..      ...                                                        ..                    ",
"                     ....       ..       ...                ..               ...     ..      ..                                                        ..                    ",
"                      ........   ...........                 .               ...     .....   ...........                                               ..                    ",
"                       .......   ..........                  .               ..       ....    ..........                                               ..                    ",
"                         .....     .....                     .               ..        ...       .......                                               ..                    ",
"                                                           ..               ..                                                                                               ",
"                                                   ..........      ...........                                                                                               ",
"                                                   .........       ..........                                                                                                ",
"                                                                                                                                                                             ",
"                                                                                                                                                                             "};
