/* XPM */
static char * tres_xpm[] = {
"15 20 2 1",
" 	c #FFFFFE",
".	c #ffffff",
".........      ",
"               ",
"               ",
"               ",
"               ",
"               ",
"               ",
"               ",
"               ",
"               ",
"               ",
"               ",
"               ",
"               ",
"               ",
"               ",
"               ",
"               ",
"               ",
".........      "};
