/* XPM */
static char * w_xpm[] = {
"20 18 2 1",
" 	c #FFFFFE",
".	c #FFFFFF",
"                    ",
"  .              .  ",
"  .      ..      .  ",
"  .      ..      .  ",
"  .      ..      .  ",
"  .      ..      .  ",
"  ..     ..     ..  ",
"  ..    ....    ..  ",
"  ..    ....    ..  ",
"   .    ....    ..  ",
"   .    ....    .   ",
"   ..   .  .   ..   ",
"   ..       .  ..   ",
"   ..  .    .  ..   ",
"   ..  .    .  ..   ",
"    ....    ....    ",
"     ..      ...    ",
"                    "};
