/* XPM */
static char * exit_xpm[] = {
"100 39 2 1",
" 	c None",
".	c #000000",
"         ....................  ...                     ...   .......................................",
"      .......................  ...                     ...   .......................................",
"    .........................  ...                     ...   .......................................",
"   ..........................   ...                   ...    .......................................",
"  ....                          ...                   ...    ...                 ...                ",
"  ...                            ...                 ...     ...                 ...                ",
" ...                             ...                 ...     ...                 ...                ",
" ...                              ...               ...      ...                 ...                ",
" ...                              ...               ...      ...                 ...                ",
" ...                               ...             ...       ...                 ...                ",
"....                               ...             ...       ...                 ...                ",
"....                                ...           ...        ...                 ...                ",
"....                                ...           ...        ...                 ...                ",
"....                                 ...         ...         ...                 ...                ",
"....                                 ...         ...         ...                 ...                ",
"....                                  ...       ...          ...                 ...                ",
".............................         ...       ...          ...                 ...                ",
".............................          ....   ....           ...                 ...                ",
".............................           .........            ...                 ...                ",
"....                                    .........            ...                 ...                ",
"....                                   ...     ...           ...                 ...                ",
"....                                  ...       ...          ...                 ...                ",
"....                                  ...        ..          ...                 ...                ",
"....                                 ...         ...         ...                 ...                ",
"....                                 ...         ...         ...                 ...                ",
"....                                ...           ...        ...                 ...                ",
"....                                ...           ...        ...                 ...                ",
"....                               ...             ...       ...                 ...                ",
"....                               ...             ...       ...                 ...                ",
"....                              ...               ...      ...                 ...                ",
" ...                              ...               ...      ...                 ...                ",
" ...                             ...                 ...     ...                 ...                ",
" ...                             ...                 ...     ...                 ...                ",
"  ...                           ...                   ...    ...                 ...                ",
"  ....                          ...                   ...    ...                 ...                ",
"   ..........................  ....                    ...   ...                 ...                ",
"    .........................  ...                     ...   ...                 ...                ",
"      .......................  ...                     ...   ...                 ...                ",
"         .................... ...                       ...  ...                 ...                "};
